<?xml version="1.0" encoding="utf-8"?>
<!-- Generator: Adobe Illustrator 23.1.0, SVG Export Plug-In . SVG Version: 6.00 Build 0)  -->
<svg version="1.1" id="Layer_1" xmlns="http://www.w3.org/2000/svg" xmlns:xlink="http://www.w3.org/1999/xlink" x="0px" y="0px"
	 viewBox="0 0 150 20" style="enable-background:new 0 0 150 20;" xml:space="preserve">
<style type="text/scss">
	.st0{fill:#0E3456;}
	.st1{fill-rule:evenodd;clip-rule:evenodd;fill:#0E3456;}
</style>
<g>
	<g>
		<path class="st0" d="M63.1,6.2H3.8C1.7,6.2,0,7.9,0,10s1.7,3.8,3.8,3.8h59.3c-0.4-1.2-0.6-2.5-0.6-3.8S62.7,7.4,63.1,6.2z"/>
	</g>
	<g>
		<path class="st0" d="M146.2,6.2H86.9c0.4,1.2,0.6,2.5,0.6,3.8s-0.2,2.6-0.6,3.8h59.3c2.1,0,3.8-1.7,3.8-3.8S148.3,6.2,146.2,6.2z"
			/>
	</g>
</g>
<g>
	<path class="st1" d="M81.5,8.5l-7.1,7.1c-0.2,0.2-0.4,0.2-0.6,0.2c-0.2,0-0.4-0.1-0.6-0.2l-4.7-4.7c-0.2-0.2-0.2-0.4-0.2-0.6
		c0-0.2,0.1-0.4,0.2-0.6l1.2-1.2c0.2-0.2,0.4-0.2,0.6-0.2c0.2,0,0.4,0.1,0.6,0.2l2.9,2.9l5.3-5.3c0.2-0.2,0.4-0.2,0.6-0.2
		c0.2,0,0.4,0.1,0.6,0.2l1.2,1.2c0.2,0.2,0.2,0.4,0.2,0.6C81.7,8.1,81.6,8.3,81.5,8.5L81.5,8.5z M80,1.3C78.5,0.4,76.8,0,75,0
		c-1.8,0-3.5,0.4-5,1.3c-1.5,0.9-2.7,2.1-3.6,3.6C65.4,6.5,65,8.2,65,10c0,1.8,0.4,3.5,1.3,5c0.9,1.5,2.1,2.7,3.6,3.6
		c1.5,0.9,3.2,1.3,5,1.3c1.8,0,3.5-0.4,5-1.3c1.5-0.9,2.7-2.1,3.6-3.6c0.9-1.5,1.3-3.2,1.3-5c0-1.8-0.4-3.5-1.3-5
		C82.8,3.4,81.6,2.2,80,1.3z"/>
</g>
</svg>
