<?xml version="1.0" encoding="utf-8"?>
<!-- Generator: Adobe Illustrator 23.1.0, SVG Export Plug-In . SVG Version: 6.00 Build 0)  -->
<svg version="1.1" id="Layer_1" xmlns="http://www.w3.org/2000/svg" xmlns:xlink="http://www.w3.org/1999/xlink" x="0px" y="0px"
	 viewBox="0 0 451 309" style="enable-background:new 0 0 451 309;" xml:space="preserve">
<style type="text/scss">
	.st0{fill:#003082;}
	.st1{fill:#0713AA;}
</style>
<path class="st0" d="M388.3,216.9c0,0,31.6-44.3,31.2-92.3c-0.5-58.4-40.7-101-125.7-102.4c-84.3-1.4-156.2,52.5-156.2,52.5
	S200.5-0.9,312.4,0C410.2,0.8,449.8,56.5,451,110.8C452.2,164.3,388.3,216.9,388.3,216.9z"/>
<path class="st1" d="M279.8,132.6L279.8,132.6L279.8,132.6z"/>
<g>
	<polygon class="st0" points="163.8,216.9 82,216.9 104.7,94.7 183.8,94.7 179.1,118 127.9,118 123.5,143.1 171.8,143.1 
		167.7,165.8 119.1,165.8 113.7,193.9 167.9,193.9 	"/>
	<path class="st0" d="M362.7,99.5l-8.4,22.3c-8.4-3.1-13.8-5.5-25.3-5.7s-21.7,5.8-20.7,12.7c1.4,8.8,14.5,13,25,18.4
		s22.5,14.9,22.3,30.8c0.1,31.5-31.5,40.6-51.3,41c-19.7,0.4-31.8-4.7-40-9.5l9.3-21.6c9.4,3.4,20.4,8.4,32.5,8.5
		s20.2-4.9,20.4-13.8c0.1-9.7-19.6-17.2-25.4-20s-21.3-12.5-21.3-30c0-21.2,15.1-39.1,50.8-38.8C355.1,94.1,362.7,99.5,362.7,99.5z"
		/>
	<path class="st0" d="M192.6,94.7h103.5c-9.1,3.9-18.5,7.2-23.7,23.3h-27.6l-18.5,98.8h-26.9l18-98.8h-29.3L192.6,94.7z"/>
</g>
<path class="st0" d="M33.6,191.3c-1.3,74.6,85.2,99.1,146.4,97.3c127.9-3.7,205.3-69.7,205.3-69.7s-77.2,90.3-228.1,90.1
	C58.6,308.9,0.4,262.8,0,199.5c-0.5-75,90.7-139.2,150.1-158C150.1,41.5,35.2,98.3,33.6,191.3z"/>
<path class="st1" d="M150.1,41.5L150.1,41.5L150.1,41.5z"/>
<path class="st0" d="M412.5,219.5c-6.8,0-12.4,5.6-12.4,12.4s5.6,12.4,12.4,12.4s12.4-5.6,12.4-12.4S419.3,219.5,412.5,219.5z
	 M412.5,240.9c-5,0-9-4-9-9s4-9,9-9s9,4,9,9S417.4,240.9,412.5,240.9z M417,230.3c0-2.5-1.8-4.1-4.6-4.1h-4.2v11.3h2.4v-3.2h1.8
	c0.1,0,0.2,0,0.3,0l2.3,3.2h3l-2.8-3.9C416.3,233,417,231.8,417,230.3z M412.4,232h-1.8v-3.4h1.8c2.2,0,2.2,1.2,2.2,1.7
	C414.6,230.7,414.6,232,412.4,232z"/>
</svg>
