<?xml version="1.0" encoding="utf-8"?>
<svg version="1.1" xmlns:xlink="http://www.w3.org/1999/xlink" width="14px" height="15px" xmlns="http://www.w3.org/2000/svg">
  <g transform="matrix(1 0 0 1 -360 -577 )">
    <path d="M 13.6671887524654 0.901376567290355  C 13.8918350329308 0.572780329805762  13.6598060108539 0.123066032450931  13.2653566733231 0.123066032450931  L 10.4417216762529 0.123066032450931  C 10.1717242687452 0.123066032450931  9.91912903789323 0.259156744313956  9.76725549617016 0.485618105704885  L 5.87233195739703 6.30249340490329  L 4.22149819918835 0.712614204666987  C 4.11813981662682 0.362895833121137  3.80068192733065 0.122798663665345  3.44077327376814 0.122798663665345  L 0.665126097172916 0.122798663665345  C 0.330002361877726 0.122798663665345  0.0942819689950282 0.457009645647235  0.202122730392142 0.778921663492193  L 3.31131162622295 10.0330900701779  L 0.386954940023869 14.21687682702  C 0.157298942036366 14.5454730645046  0.389064294770032 14.9997326312144  0.786150325733497 14.9997326312144  L 3.60688496002777 14.9997326312144  C 3.87424567410278 14.9997326312144  4.12446788086528 14.8668503447784  4.2768687612749 14.6438647776001  L 13.6671887524654 0.901376567290355  Z " fill-rule="nonzero" fill="#ffffff" stroke="none" transform="matrix(1 0 0 1 360 577 )" />
  </g>
</svg>